<svg width="512" height="449" viewBox="0 0 512 449" fill="none" xmlns="http://www.w3.org/2000/svg">
<path d="M418.2 145.2C412.8 143.4 407.4 141.7 402 140.1C402.9 136.4 403.7 132.7 404.5 129C416.8 69.4002 408.7 21.5002 381.4 5.70019C355.1 -9.39981 312.2 6.30019 268.8 44.1002C264.5 47.8002 260.3 51.7002 256.3 55.6002C253.6 53.0002 250.8 50.4002 248 47.9002C202.5 7.50019 156.9 -9.49981 129.6 6.40019C103.4 21.6002 95.6 66.7002 106.6 123.1C107.7 128.7 108.9 134.2 110.3 139.8C103.9 141.6 97.6 143.6 91.7 145.7C38.3 164.2 0 193.4 0 223.6C0 254.8 40.8 286.1 96.3 305.1C100.8 306.6 105.3 308.1 109.9 309.4C108.4 315.4 107.1 321.3 105.9 327.4C95.4 382.9 103.6 426.9 129.8 442C156.8 457.6 202.2 441.6 246.4 402.9C249.9 399.8 253.4 396.6 256.9 393.2C261.3 397.5 265.9 401.6 270.5 405.6C313.3 442.4 355.6 457.3 381.7 442.2C408.7 426.6 417.5 379.3 406.1 321.7C405.2 317.3 404.2 312.8 403.1 308.2C406.3 307.3 409.4 306.3 412.5 305.3C470.2 286.2 512 255.3 512 223.6C512 193.3 472.6 163.9 418.2 145.2ZM282.9 60.3002C320.1 27.9002 354.8 15.2002 370.6 24.3002C387.5 34.0002 394 73.2002 383.4 124.7C382.7 128.1 382 131.4 381.1 134.7C358.9 129.7 336.4 126.1 313.8 124.1C300.8 105.5 286.6 87.7002 271.2 71.0002C275.1 67.3002 278.9 63.8002 282.9 60.3002ZM167.2 275.5C172.3 284.2 177.5 292.9 183 301.4C167.4 299.7 151.9 297.2 136.6 293.9C141 279.5 146.5 264.6 152.9 249.4C157.5 258.2 162.2 266.9 167.2 275.5ZM136.9 155.2C151.3 152 166.6 149.4 182.5 147.4C177.2 155.7 172 164.2 167.1 172.8C162.2 181.3 157.4 190 152.9 198.8C146.6 183.9 141.3 169.3 136.9 155.2ZM164.3 224.1C170.9 210.3 178.1 196.8 185.7 183.5C193.3 170.2 201.5 157.3 210.1 144.6C225.1 143.5 240.4 142.9 256 142.9C271.6 142.9 287 143.5 301.9 144.6C310.4 157.2 318.5 170.1 326.2 183.3C333.9 196.5 341.1 210 347.9 223.7C341.2 237.5 334 251.1 326.3 264.5C318.7 277.8 310.6 290.7 302.1 303.5C287.2 304.6 271.7 305.1 256 305.1C240.3 305.1 225.1 304.6 210.4 303.7C201.7 291 193.5 278 185.8 264.7C178.1 251.4 171 237.9 164.3 224.1ZM344.9 275.3C350 266.5 354.8 257.6 359.5 248.6C365.9 263.1 371.5 277.8 376.4 292.9C360.9 296.4 345.2 299.1 329.4 300.9C334.8 292.5 339.9 283.9 344.9 275.3ZM359.3 198.8C354.6 190 349.8 181.2 344.8 172.6C339.9 164.1 334.8 155.7 329.5 147.4C345.6 149.4 361 152.1 375.4 155.4C370.8 170.2 365.4 184.6 359.3 198.8ZM256.2 86.3002C266.7 97.7002 276.6 109.7 285.8 122.1C266 121.2 246.1 121.2 226.3 122.1C236.1 109.2 246.2 97.2002 256.2 86.3002ZM140.2 25.0002C157 15.2002 194.3 29.2002 233.6 64.0002C236.1 66.2002 238.6 68.6002 241.2 71.0002C225.7 87.7002 211.4 105.5 198.3 124.1C175.7 126.1 153.3 129.6 131.1 134.5C129.8 129.4 128.7 124.2 127.6 119C118.2 70.6002 124.4 34.1002 140.2 25.0002ZM115.7 288.6C111.5 287.4 107.4 286.1 103.3 284.7C82 278 57.8 267.4 40.3 253.5C30.2 246.5 23.4 235.7 21.5 223.6C21.5 205.3 53.1 181.9 98.7 166C104.4 164 110.2 162.2 116 160.5C122.8 182.2 131 203.5 140.5 224.1C130.9 245 122.6 266.6 115.7 288.6ZM232.3 386.6C215.8 401.7 196.7 413.7 175.9 421.9C164.8 427.2 152 427.7 140.6 423.2C124.7 414 118.1 378.7 127.1 331.2C128.2 325.6 129.4 320 130.8 314.5C153.2 319.3 175.8 322.6 198.7 324.3C211.9 343 226.4 360.9 241.9 377.7C238.7 380.8 235.5 383.8 232.3 386.6ZM256.8 362.3C246.6 351.3 236.4 339.1 226.5 326C236.1 326.4 246 326.6 256 326.6C266.3 326.6 276.4 326.4 286.4 325.9C277.2 338.6 267.3 350.7 256.8 362.3ZM387.5 392.3C386.6 404.5 380.6 415.9 371 423.6C355.1 432.8 321.2 420.8 284.6 389.4C280.4 385.8 276.2 381.9 271.9 377.9C287.2 361 301.3 343.1 314.1 324.3C337 322.4 359.8 318.9 382.3 313.8C383.3 317.9 384.2 322 385 326C389.9 347.6 390.7 370.1 387.5 392.3ZM405.7 284.8C402.9 285.7 400.1 286.6 397.2 287.4C390.2 265.6 381.6 244.3 371.7 223.6C381.3 203.2 389.4 182.2 396.2 160.7C401.4 162.2 406.4 163.8 411.2 165.4C457.8 181.4 490.5 205.2 490.5 223.4C490.5 243 455.6 268.3 405.7 284.8ZM256 269.8C281.3 269.8 301.8 249.3 301.8 224C301.8 198.7 281.3 178.2 256 178.2C230.7 178.2 210.2 198.7 210.2 224C210.2 249.3 230.7 269.8 256 269.8Z" fill="#00D1FF"/>
</svg>
